<svg width="64" height="64" viewBox="0 0 64 64" fill="none" xmlns="http://www.w3.org/2000/svg">
<circle cx="32" cy="32" r="31" fill="#363A3B" stroke="#B05F30" stroke-width="2"/>
<path d="M32.1399 25.6367C28.1187 25.6367 24.8734 28.8115 24.8734 32.7452C24.8734 36.679 28.1187 39.8538 32.1399 39.8538C36.1611 39.8538 39.4064 36.679 39.4064 32.7452C39.4064 28.8115 36.1611 25.6367 32.1399 25.6367ZM32.1399 37.3653C29.5394 37.3653 27.4172 35.2892 27.4172 32.7452C27.4172 30.2013 29.5394 28.1252 32.1399 28.1252C34.7404 28.1252 36.8626 30.2013 36.8626 32.7452C36.8626 35.2892 34.7404 37.3653 32.1399 37.3653ZM39.704 23.6889C38.7651 23.6889 38.0069 24.4306 38.0069 25.3491C38.0069 26.2675 38.7651 27.0092 39.704 27.0092C40.6429 27.0092 41.401 26.271 41.401 25.3491C41.4013 25.131 41.3576 24.915 41.2724 24.7134C41.1872 24.5119 41.0622 24.3288 40.9046 24.1746C40.747 24.0203 40.5598 23.8981 40.3537 23.8147C40.1477 23.7314 39.9269 23.6886 39.704 23.6889ZM46.3044 32.7452C46.3044 30.8321 46.3221 28.9362 46.2123 27.0266C46.1025 24.8084 45.5852 22.8398 43.9271 21.2177C42.2655 19.5923 40.2567 19.0897 37.9892 18.9823C36.0335 18.8748 34.0956 18.8921 32.1434 18.8921C30.1878 18.8921 28.2498 18.8748 26.2977 18.9823C24.0302 19.0897 22.0179 19.5957 20.3598 21.2177C18.6982 22.8432 18.1844 24.8084 18.0746 27.0266C17.9648 28.9397 17.9825 30.8355 17.9825 32.7452C17.9825 34.6549 17.9648 36.5542 18.0746 38.4639C18.1844 40.6821 18.7017 42.6507 20.3598 44.2727C22.0214 45.8982 24.0302 46.4008 26.2977 46.5082C28.2533 46.6157 30.1913 46.5983 32.1434 46.5983C34.0991 46.5983 36.0371 46.6157 37.9892 46.5082C40.2567 46.4008 42.269 45.8948 43.9271 44.2727C45.5887 42.6472 46.1025 40.6821 46.2123 38.4639C46.3257 36.5542 46.3044 34.6584 46.3044 32.7452ZM43.1866 40.9178C42.928 41.5486 42.6162 42.0199 42.1167 42.5051C41.6171 42.9938 41.1389 43.2988 40.494 43.5518C38.6305 44.2762 34.2054 44.1133 32.1399 44.1133C30.0744 44.1133 25.6458 44.2762 23.7822 43.5553C23.1374 43.3023 22.6556 42.9973 22.1596 42.5086C21.66 42.0199 21.3482 41.552 21.0896 40.9212C20.3527 39.0947 20.5192 34.7659 20.5192 32.7452C20.5192 30.7246 20.3527 26.3923 21.0896 24.5692C21.3482 23.9385 21.66 23.4671 22.1596 22.9819C22.6591 22.4967 23.1374 22.1882 23.7822 21.9352C25.6458 21.2143 30.0744 21.3772 32.1399 21.3772C34.2054 21.3772 38.634 21.2143 40.4976 21.9352C41.1424 22.1882 41.6242 22.4932 42.1202 22.9819C42.6198 23.4706 42.9316 23.9385 43.1902 24.5692C43.9271 26.3923 43.7606 30.7246 43.7606 32.7452C43.7606 34.7659 43.9271 39.0947 43.1866 40.9178Z" fill="white"/>
</svg>
