<svg width="64" height="64" viewBox="0 0 64 64" fill="none" xmlns="http://www.w3.org/2000/svg">
<circle cx="32" cy="32" r="31" fill="#363A3B" stroke="#B05F30" stroke-width="2"/>
<path d="M47.1084 22.8139C46.0242 23.2714 44.8444 23.6006 43.6292 23.7289C44.8909 22.9956 45.8357 21.8372 46.2864 20.4709C45.1025 21.1599 43.8055 21.643 42.453 21.8989C41.8877 21.3077 41.204 20.8367 40.4445 20.5153C39.6851 20.1939 38.866 20.029 38.0385 20.0308C34.6905 20.0308 31.9979 22.6856 31.9979 25.9436C31.9979 26.4011 32.0546 26.8586 32.1467 27.2987C27.1335 27.0422 22.6624 24.6993 19.6899 21.1121C19.1483 22.0171 18.8644 23.0476 18.8679 24.0962C18.8679 26.148 19.9344 27.9572 21.5605 29.0213C20.6022 28.9843 19.6663 28.7267 18.829 28.2692V28.3419C18.829 31.2152 20.9051 33.5962 23.6721 34.1438C23.1526 34.2758 22.6181 34.3434 22.0813 34.3448C21.6881 34.3448 21.3161 34.3067 20.9405 34.2547C21.7058 36.5977 23.9343 38.2994 26.5879 38.3549C24.5118 39.9457 21.9113 40.8815 19.0876 40.8815C18.581 40.8815 18.1133 40.8642 17.6279 40.8087C20.3064 42.4897 23.4843 43.4601 26.9068 43.4601C38.0173 43.4601 44.0969 34.4558 44.0969 26.6402C44.0969 26.3837 44.0969 26.1273 44.0792 25.8708C45.2554 25.0286 46.2864 23.9853 47.1084 22.8139Z" fill="white"/>
</svg>
